<svg xmlns="http://www.w3.org/2000/svg" xmlns:xlink="http://www.w3.org/1999/xlink" contentStyleType="text/css" height="489px" preserveAspectRatio="none" style="width:883px;height:489px;background:#FFFFFF;" version="1.1" viewBox="0 0 883 489" width="883px" zoomAndPan="magnify"><defs/><g><!--cluster Call Chain--><g id="cluster_Call Chain"><path d="M8.5,6.0137 L77.9551,6.0137 A3.75,3.75 0 0 1 80.4551,8.5137 L87.4551,30.6348 L873.5,30.6348 A2.5,2.5 0 0 1 876,33.1348 L876,480.0137 A2.5,2.5 0 0 1 873.5,482.5137 L8.5,482.5137 A2.5,2.5 0 0 1 6,480.0137 L6,8.5137 A2.5,2.5 0 0 1 8.5,6.0137 " fill="none" style="stroke:#000000;stroke-width:1.5;"/><line style="stroke:#000000;stroke-width:1.5;" x1="6" x2="87.4551" y1="30.6348" y2="30.6348"/><text fill="#000000" font-family="sans-serif" font-size="14" font-weight="bold" lengthAdjust="spacing" textLength="68.4551" x="10" y="23.1211">Call Chain</text></g><!--cluster adapter--><g id="cluster_adapter"><path d="M706.5,51.0137 L758.0723,51.0137 A3.75,3.75 0 0 1 760.5723,53.5137 L767.5723,75.6348 L849.5,75.6348 A2.5,2.5 0 0 1 852,78.1348 L852,149.5137 A2.5,2.5 0 0 1 849.5,152.0137 L706.5,152.0137 A2.5,2.5 0 0 1 704,149.5137 L704,53.5137 A2.5,2.5 0 0 1 706.5,51.0137 " fill="none" style="stroke:#000000;stroke-width:1.5;"/><line style="stroke:#000000;stroke-width:1.5;" x1="704" x2="767.5723" y1="75.6348" y2="75.6348"/><text fill="#000000" font-family="sans-serif" font-size="14" font-weight="bold" lengthAdjust="spacing" textLength="50.5723" x="708" y="68.1211">adapter</text></g><!--cluster app--><g id="cluster_app"><path d="M226.5,51.0137 L252.3896,51.0137 A3.75,3.75 0 0 1 254.8896,53.5137 L261.8896,75.6348 L500.5,75.6348 A2.5,2.5 0 0 1 503,78.1348 L503,304.0137 A2.5,2.5 0 0 1 500.5,306.5137 L226.5,306.5137 A2.5,2.5 0 0 1 224,304.0137 L224,53.5137 A2.5,2.5 0 0 1 226.5,51.0137 " fill="none" style="stroke:#000000;stroke-width:1.5;"/><line style="stroke:#000000;stroke-width:1.5;" x1="224" x2="261.8896" y1="75.6348" y2="75.6348"/><text fill="#000000" font-family="sans-serif" font-size="14" font-weight="bold" lengthAdjust="spacing" textLength="24.8896" x="228" y="68.1211">app</text></g><!--cluster client--><g id="cluster_client"><path d="M529.5,205.5137 L567.0654,205.5137 A3.75,3.75 0 0 1 569.5654,208.0137 L576.5654,230.1348 L849.5,230.1348 A2.5,2.5 0 0 1 852,232.6348 L852,304.0137 A2.5,2.5 0 0 1 849.5,306.5137 L529.5,306.5137 A2.5,2.5 0 0 1 527,304.0137 L527,208.0137 A2.5,2.5 0 0 1 529.5,205.5137 " fill="none" style="stroke:#000000;stroke-width:1.5;"/><line style="stroke:#000000;stroke-width:1.5;" x1="527" x2="576.5654" y1="230.1348" y2="230.1348"/><text fill="#000000" font-family="sans-serif" font-size="14" font-weight="bold" lengthAdjust="spacing" textLength="36.5654" x="531" y="222.6211">client</text></g><!--cluster domain--><g id="cluster_domain"><path d="M225.5,357.5137 L276.2793,357.5137 A3.75,3.75 0 0 1 278.7793,360.0137 L285.7793,382.1348 L364.5,382.1348 A2.5,2.5 0 0 1 367,384.6348 L367,456.0137 A2.5,2.5 0 0 1 364.5,458.5137 L225.5,458.5137 A2.5,2.5 0 0 1 223,456.0137 L223,360.0137 A2.5,2.5 0 0 1 225.5,357.5137 " fill="none" style="stroke:#000000;stroke-width:1.5;"/><line style="stroke:#000000;stroke-width:1.5;" x1="223" x2="285.7793" y1="382.1348" y2="382.1348"/><text fill="#000000" font-family="sans-serif" font-size="14" font-weight="bold" lengthAdjust="spacing" textLength="49.7793" x="227" y="374.6211">domain</text></g><!--cluster infrastructure--><g id="cluster_infrastructure"><path d="M32.5,205.5137 L124.5205,205.5137 A3.75,3.75 0 0 1 127.0205,208.0137 L134.0205,230.1348 L197.5,230.1348 A2.5,2.5 0 0 1 200,232.6348 L200,304.0137 A2.5,2.5 0 0 1 197.5,306.5137 L32.5,306.5137 A2.5,2.5 0 0 1 30,304.0137 L30,208.0137 A2.5,2.5 0 0 1 32.5,205.5137 " fill="none" style="stroke:#000000;stroke-width:1.5;"/><line style="stroke:#000000;stroke-width:1.5;" x1="30" x2="134.0205" y1="230.1348" y2="230.1348"/><text fill="#000000" font-family="sans-serif" font-size="14" font-weight="bold" lengthAdjust="spacing" textLength="91.0205" x="34" y="222.6211">infrastructure</text></g><path d="M92.5,83.5137 L123.8447,83.5137 A3.75,3.75 0 0 1 126.3447,86.0137 L133.3447,108.1348 L137.8447,108.1348 A2.5,2.5 0 0 1 140.3447,110.6348 L140.3447,138.2559 A2.5,2.5 0 0 1 137.8447,140.7559 L92.5,140.7559 A2.5,2.5 0 0 1 90,138.2559 L90,86.0137 A2.5,2.5 0 0 1 92.5,83.5137 " fill="#F1F1F1" style="stroke:#181818;stroke-width:0.5;"/><line style="stroke:#181818;stroke-width:0.5;" x1="90" x2="133.3447" y1="108.1348" y2="108.1348"/><text fill="#000000" font-family="sans-serif" font-size="14" font-weight="bold" lengthAdjust="spacing" textLength="30.3447" x="94" y="100.6211">start</text><!--class XxxController--><g id="elem_XxxController"><rect codeLine="5" fill="#F1F1F1" height="48" id="XxxController" rx="2.5" ry="2.5" style="stroke:#181818;stroke-width:0.5;" width="116.0273" x="720" y="88.0137"/><ellipse cx="735" cy="104.0137" fill="#ADD1B2" rx="11" ry="11" style="stroke:#181818;stroke-width:1.0;"/><path d="M737.7656,99.8887 Q737.9219,99.6699 738.1094,99.5605 Q738.2969,99.4512 738.5156,99.4512 Q738.8906,99.4512 739.125,99.7168 Q739.3594,99.9668 739.3594,100.5762 L739.3594,102.0293 Q739.3594,102.6387 739.125,102.9043 Q738.8906,103.1699 738.5156,103.1699 Q738.1719,103.1699 737.9688,102.9668 Q737.7656,102.7793 737.6563,102.2637 Q737.6094,101.9043 737.4219,101.7168 Q737.0938,101.3418 736.4844,101.123 Q735.875,100.9043 735.25,100.9043 Q734.4844,100.9043 733.8438,101.2324 Q733.2188,101.5605 732.7188,102.3105 Q732.2344,103.0605 732.2344,104.0918 L732.2344,105.1855 Q732.2344,106.4199 733.125,107.248 Q734.0156,108.0605 735.6094,108.0605 Q736.5469,108.0605 737.2031,107.8105 Q737.5938,107.6543 738.0156,107.2168 Q738.2813,106.9512 738.4219,106.873 Q738.5781,106.7949 738.7813,106.7949 Q739.1094,106.7949 739.3594,107.0605 Q739.625,107.3105 739.625,107.6543 Q739.625,107.998 739.2813,108.4043 Q738.7813,108.9824 737.9844,109.3105 Q736.9063,109.7637 735.6094,109.7637 Q734.0938,109.7637 732.8906,109.1387 Q731.9063,108.6387 731.2188,107.5762 Q730.5313,106.498 730.5313,105.2168 L730.5313,104.0605 Q730.5313,102.7324 731.1406,101.5918 Q731.7656,100.4355 732.8594,99.8262 Q733.9531,99.2012 735.1875,99.2012 Q735.9219,99.2012 736.5625,99.373 Q737.2188,99.5293 737.7656,99.8887 Z " fill="#000000"/><text fill="#000000" font-family="sans-serif" font-size="14" lengthAdjust="spacing" textLength="84.0273" x="749" y="109.8105">XxxController</text><line style="stroke:#181818;stroke-width:0.5;" x1="721" x2="835.0273" y1="120.0137" y2="120.0137"/><line style="stroke:#181818;stroke-width:0.5;" x1="721" x2="835.0273" y1="128.0137" y2="128.0137"/></g><!--class XxxImpl--><g id="elem_XxxImpl"><rect codeLine="8" fill="#F1F1F1" height="48" id="XxxImpl" rx="2.5" ry="2.5" style="stroke:#181818;stroke-width:0.5;" width="81.7861" x="395" y="88.0137"/><ellipse cx="410" cy="104.0137" fill="#ADD1B2" rx="11" ry="11" style="stroke:#181818;stroke-width:1.0;"/><path d="M412.7656,99.8887 Q412.9219,99.6699 413.1094,99.5605 Q413.2969,99.4512 413.5156,99.4512 Q413.8906,99.4512 414.125,99.7168 Q414.3594,99.9668 414.3594,100.5762 L414.3594,102.0293 Q414.3594,102.6387 414.125,102.9043 Q413.8906,103.1699 413.5156,103.1699 Q413.1719,103.1699 412.9688,102.9668 Q412.7656,102.7793 412.6563,102.2637 Q412.6094,101.9043 412.4219,101.7168 Q412.0938,101.3418 411.4844,101.123 Q410.875,100.9043 410.25,100.9043 Q409.4844,100.9043 408.8438,101.2324 Q408.2188,101.5605 407.7188,102.3105 Q407.2344,103.0605 407.2344,104.0918 L407.2344,105.1855 Q407.2344,106.4199 408.125,107.248 Q409.0156,108.0605 410.6094,108.0605 Q411.5469,108.0605 412.2031,107.8105 Q412.5938,107.6543 413.0156,107.2168 Q413.2813,106.9512 413.4219,106.873 Q413.5781,106.7949 413.7813,106.7949 Q414.1094,106.7949 414.3594,107.0605 Q414.625,107.3105 414.625,107.6543 Q414.625,107.998 414.2813,108.4043 Q413.7813,108.9824 412.9844,109.3105 Q411.9063,109.7637 410.6094,109.7637 Q409.0938,109.7637 407.8906,109.1387 Q406.9063,108.6387 406.2188,107.5762 Q405.5313,106.498 405.5313,105.2168 L405.5313,104.0605 Q405.5313,102.7324 406.1406,101.5918 Q406.7656,100.4355 407.8594,99.8262 Q408.9531,99.2012 410.1875,99.2012 Q410.9219,99.2012 411.5625,99.373 Q412.2188,99.5293 412.7656,99.8887 Z " fill="#000000"/><text fill="#000000" font-family="sans-serif" font-size="14" lengthAdjust="spacing" textLength="49.7861" x="424" y="109.8105">XxxImpl</text><line style="stroke:#181818;stroke-width:0.5;" x1="396" x2="475.7861" y1="120.0137" y2="120.0137"/><line style="stroke:#181818;stroke-width:0.5;" x1="396" x2="475.7861" y1="128.0137" y2="128.0137"/></g><!--class XxxCmdExe--><g id="elem_XxxCmdExe"><rect codeLine="9" fill="#F1F1F1" height="48" id="XxxCmdExe" rx="2.5" ry="2.5" style="stroke:#181818;stroke-width:0.5;" width="109.0205" x="240.5" y="242.5137"/><ellipse cx="255.5" cy="258.5137" fill="#ADD1B2" rx="11" ry="11" style="stroke:#181818;stroke-width:1.0;"/><path d="M258.2656,254.3887 Q258.4219,254.1699 258.6094,254.0605 Q258.7969,253.9512 259.0156,253.9512 Q259.3906,253.9512 259.625,254.2168 Q259.8594,254.4668 259.8594,255.0762 L259.8594,256.5293 Q259.8594,257.1387 259.625,257.4043 Q259.3906,257.6699 259.0156,257.6699 Q258.6719,257.6699 258.4688,257.4668 Q258.2656,257.2793 258.1563,256.7637 Q258.1094,256.4043 257.9219,256.2168 Q257.5938,255.8418 256.9844,255.623 Q256.375,255.4043 255.75,255.4043 Q254.9844,255.4043 254.3438,255.7324 Q253.7188,256.0605 253.2188,256.8105 Q252.7344,257.5605 252.7344,258.5918 L252.7344,259.6855 Q252.7344,260.9199 253.625,261.748 Q254.5156,262.5605 256.1094,262.5605 Q257.0469,262.5605 257.7031,262.3105 Q258.0938,262.1543 258.5156,261.7168 Q258.7813,261.4512 258.9219,261.373 Q259.0781,261.2949 259.2813,261.2949 Q259.6094,261.2949 259.8594,261.5605 Q260.125,261.8105 260.125,262.1543 Q260.125,262.498 259.7813,262.9043 Q259.2813,263.4824 258.4844,263.8105 Q257.4063,264.2637 256.1094,264.2637 Q254.5938,264.2637 253.3906,263.6387 Q252.4063,263.1387 251.7188,262.0762 Q251.0313,260.998 251.0313,259.7168 L251.0313,258.5605 Q251.0313,257.2324 251.6406,256.0918 Q252.2656,254.9355 253.3594,254.3262 Q254.4531,253.7012 255.6875,253.7012 Q256.4219,253.7012 257.0625,253.873 Q257.7188,254.0293 258.2656,254.3887 Z " fill="#000000"/><text fill="#000000" font-family="sans-serif" font-size="14" lengthAdjust="spacing" textLength="77.0205" x="269.5" y="264.3105">XxxCmdExe</text><line style="stroke:#181818;stroke-width:0.5;" x1="241.5" x2="348.5205" y1="274.5137" y2="274.5137"/><line style="stroke:#181818;stroke-width:0.5;" x1="241.5" x2="348.5205" y1="282.5137" y2="282.5137"/></g><!--class XxxQryExe--><g id="elem_XxxQryExe"><rect codeLine="10" fill="#F1F1F1" height="48" id="XxxQryExe" rx="2.5" ry="2.5" style="stroke:#181818;stroke-width:0.5;" width="102.0137" x="385" y="242.5137"/><ellipse cx="400" cy="258.5137" fill="#ADD1B2" rx="11" ry="11" style="stroke:#181818;stroke-width:1.0;"/><path d="M402.7656,254.3887 Q402.9219,254.1699 403.1094,254.0605 Q403.2969,253.9512 403.5156,253.9512 Q403.8906,253.9512 404.125,254.2168 Q404.3594,254.4668 404.3594,255.0762 L404.3594,256.5293 Q404.3594,257.1387 404.125,257.4043 Q403.8906,257.6699 403.5156,257.6699 Q403.1719,257.6699 402.9688,257.4668 Q402.7656,257.2793 402.6563,256.7637 Q402.6094,256.4043 402.4219,256.2168 Q402.0938,255.8418 401.4844,255.623 Q400.875,255.4043 400.25,255.4043 Q399.4844,255.4043 398.8438,255.7324 Q398.2188,256.0605 397.7188,256.8105 Q397.2344,257.5605 397.2344,258.5918 L397.2344,259.6855 Q397.2344,260.9199 398.125,261.748 Q399.0156,262.5605 400.6094,262.5605 Q401.5469,262.5605 402.2031,262.3105 Q402.5938,262.1543 403.0156,261.7168 Q403.2813,261.4512 403.4219,261.373 Q403.5781,261.2949 403.7813,261.2949 Q404.1094,261.2949 404.3594,261.5605 Q404.625,261.8105 404.625,262.1543 Q404.625,262.498 404.2813,262.9043 Q403.7813,263.4824 402.9844,263.8105 Q401.9063,264.2637 400.6094,264.2637 Q399.0938,264.2637 397.8906,263.6387 Q396.9063,263.1387 396.2188,262.0762 Q395.5313,260.998 395.5313,259.7168 L395.5313,258.5605 Q395.5313,257.2324 396.1406,256.0918 Q396.7656,254.9355 397.8594,254.3262 Q398.9531,253.7012 400.1875,253.7012 Q400.9219,253.7012 401.5625,253.873 Q402.2188,254.0293 402.7656,254.3887 Z " fill="#000000"/><text fill="#000000" font-family="sans-serif" font-size="14" lengthAdjust="spacing" textLength="70.0137" x="414" y="264.3105">XxxQryExe</text><line style="stroke:#181818;stroke-width:0.5;" x1="386" x2="486.0137" y1="274.5137" y2="274.5137"/><line style="stroke:#181818;stroke-width:0.5;" x1="386" x2="486.0137" y1="282.5137" y2="282.5137"/></g><!--class XxxI--><g id="elem_XxxI"><rect codeLine="13" fill="#F1F1F1" height="48" id="XxxI" rx="2.5" ry="2.5" style="stroke:#181818;stroke-width:0.5;" width="59.2275" x="776.5" y="242.5137"/><ellipse cx="791.5" cy="258.5137" fill="#B4A7E5" rx="11" ry="11" style="stroke:#181818;stroke-width:1.0;"/><path d="M792.4531,255.1543 L792.4531,261.8105 L794.1719,261.8105 Q794.7813,261.8105 795.0469,262.0449 Q795.3125,262.2793 795.3125,262.6699 Q795.3125,263.0449 795.0469,263.2793 Q794.7813,263.5137 794.1719,263.5137 L789.0313,263.5137 Q788.4219,263.5137 788.1563,263.2793 Q787.8906,263.0449 787.8906,262.6543 Q787.8906,262.2793 788.1563,262.0449 Q788.4219,261.8105 789.0313,261.8105 L790.75,261.8105 L790.75,255.1543 L789.0313,255.1543 Q788.4219,255.1543 788.1563,254.9199 Q787.8906,254.6855 787.8906,254.2949 Q787.8906,253.9199 788.1563,253.6855 Q788.4219,253.4512 789.0313,253.4512 L794.1719,253.4512 Q794.7813,253.4512 795.0469,253.6855 Q795.3125,253.9199 795.3125,254.2949 Q795.3125,254.6855 795.0469,254.9199 Q794.7813,255.1543 794.1719,255.1543 L792.4531,255.1543 Z " fill="#000000"/><text fill="#000000" font-family="sans-serif" font-size="14" font-style="italic" lengthAdjust="spacing" textLength="27.2275" x="805.5" y="264.3105">XxxI</text><line style="stroke:#181818;stroke-width:0.5;" x1="777.5" x2="834.7275" y1="274.5137" y2="274.5137"/><line style="stroke:#181818;stroke-width:0.5;" x1="777.5" x2="834.7275" y1="282.5137" y2="282.5137"/></g><!--class XxxCmd--><g id="elem_XxxCmd"><rect codeLine="14" fill="#F1F1F1" height="48" id="XxxCmd" rx="2.5" ry="2.5" style="stroke:#181818;stroke-width:0.5;" width="84.8965" x="656.5" y="242.5137"/><ellipse cx="671.5" cy="258.5137" fill="#ADD1B2" rx="11" ry="11" style="stroke:#181818;stroke-width:1.0;"/><path d="M674.2656,254.3887 Q674.4219,254.1699 674.6094,254.0605 Q674.7969,253.9512 675.0156,253.9512 Q675.3906,253.9512 675.625,254.2168 Q675.8594,254.4668 675.8594,255.0762 L675.8594,256.5293 Q675.8594,257.1387 675.625,257.4043 Q675.3906,257.6699 675.0156,257.6699 Q674.6719,257.6699 674.4688,257.4668 Q674.2656,257.2793 674.1563,256.7637 Q674.1094,256.4043 673.9219,256.2168 Q673.5938,255.8418 672.9844,255.623 Q672.375,255.4043 671.75,255.4043 Q670.9844,255.4043 670.3438,255.7324 Q669.7188,256.0605 669.2188,256.8105 Q668.7344,257.5605 668.7344,258.5918 L668.7344,259.6855 Q668.7344,260.9199 669.625,261.748 Q670.5156,262.5605 672.1094,262.5605 Q673.0469,262.5605 673.7031,262.3105 Q674.0938,262.1543 674.5156,261.7168 Q674.7813,261.4512 674.9219,261.373 Q675.0781,261.2949 675.2813,261.2949 Q675.6094,261.2949 675.8594,261.5605 Q676.125,261.8105 676.125,262.1543 Q676.125,262.498 675.7813,262.9043 Q675.2813,263.4824 674.4844,263.8105 Q673.4063,264.2637 672.1094,264.2637 Q670.5938,264.2637 669.3906,263.6387 Q668.4063,263.1387 667.7188,262.0762 Q667.0313,260.998 667.0313,259.7168 L667.0313,258.5605 Q667.0313,257.2324 667.6406,256.0918 Q668.2656,254.9355 669.3594,254.3262 Q670.4531,253.7012 671.6875,253.7012 Q672.4219,253.7012 673.0625,253.873 Q673.7188,254.0293 674.2656,254.3887 Z " fill="#000000"/><text fill="#000000" font-family="sans-serif" font-size="14" lengthAdjust="spacing" textLength="52.8965" x="685.5" y="264.3105">XxxCmd</text><line style="stroke:#181818;stroke-width:0.5;" x1="657.5" x2="740.3965" y1="274.5137" y2="274.5137"/><line style="stroke:#181818;stroke-width:0.5;" x1="657.5" x2="740.3965" y1="282.5137" y2="282.5137"/></g><!--class XxxQry--><g id="elem_XxxQry"><rect codeLine="15" fill="#F1F1F1" height="48" id="XxxQry" rx="2.5" ry="2.5" style="stroke:#181818;stroke-width:0.5;" width="77.8896" x="543" y="242.5137"/><ellipse cx="558" cy="258.5137" fill="#ADD1B2" rx="11" ry="11" style="stroke:#181818;stroke-width:1.0;"/><path d="M560.7656,254.3887 Q560.9219,254.1699 561.1094,254.0605 Q561.2969,253.9512 561.5156,253.9512 Q561.8906,253.9512 562.125,254.2168 Q562.3594,254.4668 562.3594,255.0762 L562.3594,256.5293 Q562.3594,257.1387 562.125,257.4043 Q561.8906,257.6699 561.5156,257.6699 Q561.1719,257.6699 560.9688,257.4668 Q560.7656,257.2793 560.6563,256.7637 Q560.6094,256.4043 560.4219,256.2168 Q560.0938,255.8418 559.4844,255.623 Q558.875,255.4043 558.25,255.4043 Q557.4844,255.4043 556.8438,255.7324 Q556.2188,256.0605 555.7188,256.8105 Q555.2344,257.5605 555.2344,258.5918 L555.2344,259.6855 Q555.2344,260.9199 556.125,261.748 Q557.0156,262.5605 558.6094,262.5605 Q559.5469,262.5605 560.2031,262.3105 Q560.5938,262.1543 561.0156,261.7168 Q561.2813,261.4512 561.4219,261.373 Q561.5781,261.2949 561.7813,261.2949 Q562.1094,261.2949 562.3594,261.5605 Q562.625,261.8105 562.625,262.1543 Q562.625,262.498 562.2813,262.9043 Q561.7813,263.4824 560.9844,263.8105 Q559.9063,264.2637 558.6094,264.2637 Q557.0938,264.2637 555.8906,263.6387 Q554.9063,263.1387 554.2188,262.0762 Q553.5313,260.998 553.5313,259.7168 L553.5313,258.5605 Q553.5313,257.2324 554.1406,256.0918 Q554.7656,254.9355 555.8594,254.3262 Q556.9531,253.7012 558.1875,253.7012 Q558.9219,253.7012 559.5625,253.873 Q560.2188,254.0293 560.7656,254.3887 Z " fill="#000000"/><text fill="#000000" font-family="sans-serif" font-size="14" lengthAdjust="spacing" textLength="45.8896" x="572" y="264.3105">XxxQry</text><line style="stroke:#181818;stroke-width:0.5;" x1="544" x2="619.8896" y1="274.5137" y2="274.5137"/><line style="stroke:#181818;stroke-width:0.5;" x1="544" x2="619.8896" y1="282.5137" y2="282.5137"/></g><!--class XxxGateway--><g id="elem_XxxGateway"><rect codeLine="19" fill="#F1F1F1" height="48" id="XxxGateway" rx="2.5" ry="2.5" style="stroke:#181818;stroke-width:0.5;" width="110.5859" x="239.5" y="394.5137"/><ellipse cx="254.5" cy="410.5137" fill="#B4A7E5" rx="11" ry="11" style="stroke:#181818;stroke-width:1.0;"/><path d="M255.4531,407.1543 L255.4531,413.8105 L257.1719,413.8105 Q257.7813,413.8105 258.0469,414.0449 Q258.3125,414.2793 258.3125,414.6699 Q258.3125,415.0449 258.0469,415.2793 Q257.7813,415.5137 257.1719,415.5137 L252.0313,415.5137 Q251.4219,415.5137 251.1563,415.2793 Q250.8906,415.0449 250.8906,414.6543 Q250.8906,414.2793 251.1563,414.0449 Q251.4219,413.8105 252.0313,413.8105 L253.75,413.8105 L253.75,407.1543 L252.0313,407.1543 Q251.4219,407.1543 251.1563,406.9199 Q250.8906,406.6855 250.8906,406.2949 Q250.8906,405.9199 251.1563,405.6855 Q251.4219,405.4512 252.0313,405.4512 L257.1719,405.4512 Q257.7813,405.4512 258.0469,405.6855 Q258.3125,405.9199 258.3125,406.2949 Q258.3125,406.6855 258.0469,406.9199 Q257.7813,407.1543 257.1719,407.1543 L255.4531,407.1543 Z " fill="#000000"/><text fill="#000000" font-family="sans-serif" font-size="14" font-style="italic" lengthAdjust="spacing" textLength="78.5859" x="268.5" y="416.3105">XxxGateway</text><line style="stroke:#181818;stroke-width:0.5;" x1="240.5" x2="349.0859" y1="426.5137" y2="426.5137"/><line style="stroke:#181818;stroke-width:0.5;" x1="240.5" x2="349.0859" y1="434.5137" y2="434.5137"/></g><!--class XxxGatewayImpl--><g id="elem_XxxGatewayImpl"><rect codeLine="23" fill="#F1F1F1" height="48" id="XxxGatewayImpl" rx="2.5" ry="2.5" style="stroke:#181818;stroke-width:0.5;" width="137.0342" x="46.5" y="242.5137"/><ellipse cx="61.5" cy="258.5137" fill="#ADD1B2" rx="11" ry="11" style="stroke:#181818;stroke-width:1.0;"/><path d="M64.2656,254.3887 Q64.4219,254.1699 64.6094,254.0605 Q64.7969,253.9512 65.0156,253.9512 Q65.3906,253.9512 65.625,254.2168 Q65.8594,254.4668 65.8594,255.0762 L65.8594,256.5293 Q65.8594,257.1387 65.625,257.4043 Q65.3906,257.6699 65.0156,257.6699 Q64.6719,257.6699 64.4688,257.4668 Q64.2656,257.2793 64.1563,256.7637 Q64.1094,256.4043 63.9219,256.2168 Q63.5938,255.8418 62.9844,255.623 Q62.375,255.4043 61.75,255.4043 Q60.9844,255.4043 60.3438,255.7324 Q59.7188,256.0605 59.2188,256.8105 Q58.7344,257.5605 58.7344,258.5918 L58.7344,259.6855 Q58.7344,260.9199 59.625,261.748 Q60.5156,262.5605 62.1094,262.5605 Q63.0469,262.5605 63.7031,262.3105 Q64.0938,262.1543 64.5156,261.7168 Q64.7813,261.4512 64.9219,261.373 Q65.0781,261.2949 65.2813,261.2949 Q65.6094,261.2949 65.8594,261.5605 Q66.125,261.8105 66.125,262.1543 Q66.125,262.498 65.7813,262.9043 Q65.2813,263.4824 64.4844,263.8105 Q63.4063,264.2637 62.1094,264.2637 Q60.5938,264.2637 59.3906,263.6387 Q58.4063,263.1387 57.7188,262.0762 Q57.0313,260.998 57.0313,259.7168 L57.0313,258.5605 Q57.0313,257.2324 57.6406,256.0918 Q58.2656,254.9355 59.3594,254.3262 Q60.4531,253.7012 61.6875,253.7012 Q62.4219,253.7012 63.0625,253.873 Q63.7188,254.0293 64.2656,254.3887 Z " fill="#000000"/><text fill="#000000" font-family="sans-serif" font-size="14" lengthAdjust="spacing" textLength="105.0342" x="75.5" y="264.3105">XxxGatewayImpl</text><line style="stroke:#181818;stroke-width:0.5;" x1="47.5" x2="182.5342" y1="274.5137" y2="274.5137"/><line style="stroke:#181818;stroke-width:0.5;" x1="47.5" x2="182.5342" y1="282.5137" y2="282.5137"/></g><!--reverse link XxxController to XxxI--><g id="link_XxxController_XxxI"><path codeLine="26" d="M784.4202,147.9758 C789.6902,176.6358 796.43,213.3737 801.71,242.1337 " fill="none" id="XxxController-backto-XxxI" style="stroke:#181818;stroke-width:1.0;"/><polygon fill="none" points="782.25,136.1737,779.401,142.7981,784.4202,147.9758,787.2691,141.3513,782.25,136.1737" style="stroke:#181818;stroke-width:1.0;"/><text fill="#000000" font-family="sans-serif" font-size="13" lengthAdjust="spacing" textLength="30.3481" x="793" y="185.542">inject</text></g><!--link XxxImpl to XxxI--><g id="link_XxxImpl_XxxI"><path codeLine="27" d="M477.28,125.8737 C530.96,142.2637 627.8,170.7337 712,189.5137 C732.68,194.1237 741.13,186.1237 759,197.5137 C775.7,208.1537 779.7944,211.0885 787.6344,226.2785 " fill="none" id="XxxImpl-to-XxxI" style="stroke:#181818;stroke-width:1.0;stroke-dasharray:7.0,7.0;"/><polygon fill="none" points="795.89,242.2737,792.9662,223.5266,782.3027,229.0304,795.89,242.2737" style="stroke:#181818;stroke-width:1.0;"/><text fill="#000000" font-family="sans-serif" font-size="13" lengthAdjust="spacing" textLength="66.4663" x="713" y="185.542">implements</text></g><!--reverse link XxxImpl to XxxQryExe--><g id="link_XxxImpl_XxxQryExe"><path codeLine="29" d="M436,148.1737 C436,176.8337 436,213.3737 436,242.1337 " fill="none" id="XxxImpl-backto-XxxQryExe" style="stroke:#181818;stroke-width:1.0;"/><polygon fill="none" points="436,136.1737,432,142.1737,436,148.1737,440,142.1737,436,136.1737" style="stroke:#181818;stroke-width:1.0;"/><text fill="#000000" font-family="sans-serif" font-size="13" lengthAdjust="spacing" textLength="30.3481" x="437" y="185.542">inject</text></g><!--reverse link XxxImpl to XxxCmdExe--><g id="link_XxxImpl_XxxCmdExe"><path codeLine="30" d="M406.4416,144.9829 C379.9316,173.6429 343.21,213.3737 316.62,242.1337 " fill="none" id="XxxImpl-backto-XxxCmdExe" style="stroke:#181818;stroke-width:1.0;"/><polygon fill="none" points="414.59,136.1737,407.5794,137.8622,406.4416,144.9829,413.4522,143.2944,414.59,136.1737" style="stroke:#181818;stroke-width:1.0;"/><text fill="#000000" font-family="sans-serif" font-size="13" lengthAdjust="spacing" textLength="30.3481" x="384" y="185.542">inject</text></g><!--reverse link XxxQryExe to XxxGateway--><g id="link_XxxQryExe_XxxGateway"><path codeLine="32" d="M406.0601,299.3663 C379.6401,327.4663 343.51,365.9037 316.98,394.1337 " fill="none" id="XxxQryExe-backto-XxxGateway" style="stroke:#181818;stroke-width:1.0;"/><polygon fill="none" points="414.28,290.6237,407.2558,292.255,406.0601,299.3663,413.0842,297.7349,414.28,290.6237" style="stroke:#181818;stroke-width:1.0;"/><text fill="#000000" font-family="sans-serif" font-size="13" lengthAdjust="spacing" textLength="30.3481" x="384" y="337.542">inject</text></g><!--reverse link XxxCmdExe to XxxGateway--><g id="link_XxxCmdExe_XxxGateway"><path codeLine="33" d="M295,302.6237 C295,330.7237 295,365.9037 295,394.1337 " fill="none" id="XxxCmdExe-backto-XxxGateway" style="stroke:#181818;stroke-width:1.0;"/><polygon fill="none" points="295,290.6237,291,296.6237,295,302.6237,299,296.6237,295,290.6237" style="stroke:#181818;stroke-width:1.0;"/><text fill="#000000" font-family="sans-serif" font-size="13" lengthAdjust="spacing" textLength="30.3481" x="296" y="337.542">inject</text></g><!--link XxxGatewayImpl to XxxGateway--><g id="link_XxxGatewayImpl_XxxGateway"><path codeLine="35" d="M142.73,290.6237 C176.56,318.8137 219.57,354.6628 253.41,382.8528 " fill="none" id="XxxGatewayImpl-to-XxxGateway" style="stroke:#181818;stroke-width:1.0;stroke-dasharray:7.0,7.0;"/><polygon fill="none" points="267.24,394.3737,257.2503,378.2428,249.5697,387.4628,267.24,394.3737" style="stroke:#181818;stroke-width:1.0;"/><text fill="#000000" font-family="sans-serif" font-size="13" lengthAdjust="spacing" textLength="66.4663" x="201" y="337.542">implements</text></g><!--SRC=[TP0n3i8m34Ntdi9YXmCmi5G8CRAnMgc1Gff6YIkAWBiJYbiQ6ZpQ_p_RtwAwu95WbgFMa9-mD3EuPn3AoiWpEeRxCsfYWPR9YVHTIgFti6_Rl3RiQgt9TRCVdxKfpxQoEa6gYdLBq_xEtVf-J5Uw9CEZ1QK9HnvGKRSakI695tO4B-egfFCFla6cAoQDfJauzEmQnOsZrFjY7b8GG1GcrFDvzmKi0_5CYdlDsmQBnMCrZ4E3gf24poAD43xnfJ4Y-IJ_bVGQiOfApfwGn1sh9gpHqyFr8-BtXsVs0W00]--></g></svg>