<svg xmlns="http://www.w3.org/2000/svg" xmlns:xlink="http://www.w3.org/1999/xlink" contentStyleType="text/css" height="785px" preserveAspectRatio="none" style="width:351px;height:785px;background:#FFFFFF;" version="1.1" viewBox="0 0 351 785" width="351px" zoomAndPan="magnify"><defs/><g><!--cluster Modules Dependence--><g id="cluster_Modules Dependence"><path d="M8.5,6.0137 L153.417,6.0137 A3.75,3.75 0 0 1 155.917,8.5137 L162.917,30.6348 L341.5,30.6348 A2.5,2.5 0 0 1 344,33.1348 L344,775.5137 A2.5,2.5 0 0 1 341.5,778.0137 L8.5,778.0137 A2.5,2.5 0 0 1 6,775.5137 L6,8.5137 A2.5,2.5 0 0 1 8.5,6.0137 " fill="none" style="stroke:#000000;stroke-width:1.5;"/><line style="stroke:#000000;stroke-width:1.5;" x1="6" x2="162.917" y1="30.6348" y2="30.6348"/><text fill="#000000" font-family="sans-serif" font-size="14" font-weight="bold" lengthAdjust="spacing" textLength="143.917" x="10" y="23.1211">Modules Dependence</text></g><!--cluster domain--><g id="cluster_domain"><path d="M115.5,629.0137 L166.2793,629.0137 A3.75,3.75 0 0 1 168.7793,631.5137 L175.7793,653.6348 L289.5,653.6348 A2.5,2.5 0 0 1 292,656.1348 L292,743.5137 A2.5,2.5 0 0 1 289.5,746.0137 L115.5,746.0137 A2.5,2.5 0 0 1 113,743.5137 L113,631.5137 A2.5,2.5 0 0 1 115.5,629.0137 " fill="none" style="stroke:#000000;stroke-width:1.5;"/><line style="stroke:#000000;stroke-width:1.5;" x1="113" x2="175.7793" y1="653.6348" y2="653.6348"/><text fill="#000000" font-family="sans-serif" font-size="14" font-weight="bold" lengthAdjust="spacing" textLength="49.7793" x="117" y="646.1211">domain</text></g><!--cluster infrastructure--><g id="cluster_infrastructure"><path d="M109.5,445.0137 L201.5205,445.0137 A3.75,3.75 0 0 1 204.0205,447.5137 L211.0205,469.6348 L309.5,469.6348 A2.5,2.5 0 0 1 312,472.1348 L312,559.5137 A2.5,2.5 0 0 1 309.5,562.0137 L109.5,562.0137 A2.5,2.5 0 0 1 107,559.5137 L107,447.5137 A2.5,2.5 0 0 1 109.5,445.0137 " fill="none" style="stroke:#000000;stroke-width:1.5;"/><line style="stroke:#000000;stroke-width:1.5;" x1="107" x2="211.0205" y1="469.6348" y2="469.6348"/><text fill="#000000" font-family="sans-serif" font-size="14" font-weight="bold" lengthAdjust="spacing" textLength="91.0205" x="111" y="462.1211">infrastructure</text></g><path d="M89.5,43.0137 L120.8447,43.0137 A3.75,3.75 0 0 1 123.3447,45.5137 L130.3447,67.6348 L134.8447,67.6348 A2.5,2.5 0 0 1 137.3447,70.1348 L137.3447,97.7559 A2.5,2.5 0 0 1 134.8447,100.2559 L89.5,100.2559 A2.5,2.5 0 0 1 87,97.7559 L87,45.5137 A2.5,2.5 0 0 1 89.5,43.0137 " fill="#F1F1F1" style="stroke:#181818;stroke-width:0.5;"/><line style="stroke:#181818;stroke-width:0.5;" x1="87" x2="130.3447" y1="67.6348" y2="67.6348"/><text fill="#000000" font-family="sans-serif" font-size="14" font-weight="bold" lengthAdjust="spacing" textLength="30.3447" x="91" y="60.1211">start</text><path d="M79,179.0137 L130.5723,179.0137 A3.75,3.75 0 0 1 133.0723,181.5137 L140.0723,203.6348 L144.5723,203.6348 A2.5,2.5 0 0 1 147.0723,206.1348 L147.0723,233.7559 A2.5,2.5 0 0 1 144.5723,236.2559 L79,236.2559 A2.5,2.5 0 0 1 76.5,233.7559 L76.5,181.5137 A2.5,2.5 0 0 1 79,179.0137 " fill="#F1F1F1" style="stroke:#181818;stroke-width:0.5;"/><line style="stroke:#181818;stroke-width:0.5;" x1="76.5" x2="140.0723" y1="203.6348" y2="203.6348"/><text fill="#000000" font-family="sans-serif" font-size="14" font-weight="bold" lengthAdjust="spacing" textLength="50.5723" x="80.5" y="196.1211">adapter</text><path d="M92,315.0137 L117.8896,315.0137 A3.75,3.75 0 0 1 120.3896,317.5137 L127.3896,339.6348 L131.8896,339.6348 A2.5,2.5 0 0 1 134.3896,342.1348 L134.3896,369.7559 A2.5,2.5 0 0 1 131.8896,372.2559 L92,372.2559 A2.5,2.5 0 0 1 89.5,369.7559 L89.5,317.5137 A2.5,2.5 0 0 1 92,315.0137 " fill="#F1F1F1" style="stroke:#181818;stroke-width:0.5;"/><line style="stroke:#181818;stroke-width:0.5;" x1="89.5" x2="127.3896" y1="339.6348" y2="339.6348"/><text fill="#000000" font-family="sans-serif" font-size="14" font-weight="bold" lengthAdjust="spacing" textLength="24.8896" x="93.5" y="332.1211">app</text><path d="M25,485.5137 L62.5654,485.5137 A3.75,3.75 0 0 1 65.0654,488.0137 L72.0654,510.1348 L76.5654,510.1348 A2.5,2.5 0 0 1 79.0654,512.6348 L79.0654,540.2559 A2.5,2.5 0 0 1 76.5654,542.7559 L25,542.7559 A2.5,2.5 0 0 1 22.5,540.2559 L22.5,488.0137 A2.5,2.5 0 0 1 25,485.5137 " fill="#F1F1F1" style="stroke:#181818;stroke-width:0.5;"/><line style="stroke:#181818;stroke-width:0.5;" x1="22.5" x2="72.0654" y1="510.1348" y2="510.1348"/><text fill="#000000" font-family="sans-serif" font-size="14" font-weight="bold" lengthAdjust="spacing" textLength="36.5654" x="26.5" y="502.6211">client</text><!--class XxxGateway--><g id="elem_XxxGateway"><rect codeLine="16" fill="#F1F1F1" height="48" id="XxxGateway" rx="2.5" ry="2.5" style="stroke:#181818;stroke-width:0.5;" width="110.5859" x="156.5" y="674.0137"/><ellipse cx="171.5" cy="690.0137" fill="#B4A7E5" rx="11" ry="11" style="stroke:#181818;stroke-width:1.0;"/><path d="M172.4531,686.6543 L172.4531,693.3105 L174.1719,693.3105 Q174.7813,693.3105 175.0469,693.5449 Q175.3125,693.7793 175.3125,694.1699 Q175.3125,694.5449 175.0469,694.7793 Q174.7813,695.0137 174.1719,695.0137 L169.0313,695.0137 Q168.4219,695.0137 168.1563,694.7793 Q167.8906,694.5449 167.8906,694.1543 Q167.8906,693.7793 168.1563,693.5449 Q168.4219,693.3105 169.0313,693.3105 L170.75,693.3105 L170.75,686.6543 L169.0313,686.6543 Q168.4219,686.6543 168.1563,686.4199 Q167.8906,686.1855 167.8906,685.7949 Q167.8906,685.4199 168.1563,685.1855 Q168.4219,684.9512 169.0313,684.9512 L174.1719,684.9512 Q174.7813,684.9512 175.0469,685.1855 Q175.3125,685.4199 175.3125,685.7949 Q175.3125,686.1855 175.0469,686.4199 Q174.7813,686.6543 174.1719,686.6543 L172.4531,686.6543 Z " fill="#000000"/><text fill="#000000" font-family="sans-serif" font-size="14" font-style="italic" lengthAdjust="spacing" textLength="78.5859" x="185.5" y="695.8105">XxxGateway</text><line style="stroke:#181818;stroke-width:0.5;" x1="157.5" x2="266.0859" y1="706.0137" y2="706.0137"/><line style="stroke:#181818;stroke-width:0.5;" x1="157.5" x2="266.0859" y1="714.0137" y2="714.0137"/></g><!--class XxxGatewayImpl--><g id="elem_XxxGatewayImpl"><rect codeLine="20" fill="#F1F1F1" height="48" id="XxxGatewayImpl" rx="2.5" ry="2.5" style="stroke:#181818;stroke-width:0.5;" width="137.0342" x="150.5" y="490.0137"/><ellipse cx="165.5" cy="506.0137" fill="#ADD1B2" rx="11" ry="11" style="stroke:#181818;stroke-width:1.0;"/><path d="M168.2656,501.8887 Q168.4219,501.6699 168.6094,501.5605 Q168.7969,501.4512 169.0156,501.4512 Q169.3906,501.4512 169.625,501.7168 Q169.8594,501.9668 169.8594,502.5762 L169.8594,504.0293 Q169.8594,504.6387 169.625,504.9043 Q169.3906,505.1699 169.0156,505.1699 Q168.6719,505.1699 168.4688,504.9668 Q168.2656,504.7793 168.1563,504.2637 Q168.1094,503.9043 167.9219,503.7168 Q167.5938,503.3418 166.9844,503.123 Q166.375,502.9043 165.75,502.9043 Q164.9844,502.9043 164.3438,503.2324 Q163.7188,503.5605 163.2188,504.3105 Q162.7344,505.0605 162.7344,506.0918 L162.7344,507.1855 Q162.7344,508.4199 163.625,509.248 Q164.5156,510.0605 166.1094,510.0605 Q167.0469,510.0605 167.7031,509.8105 Q168.0938,509.6543 168.5156,509.2168 Q168.7813,508.9512 168.9219,508.873 Q169.0781,508.7949 169.2813,508.7949 Q169.6094,508.7949 169.8594,509.0605 Q170.125,509.3105 170.125,509.6543 Q170.125,509.998 169.7813,510.4043 Q169.2813,510.9824 168.4844,511.3105 Q167.4063,511.7637 166.1094,511.7637 Q164.5938,511.7637 163.3906,511.1387 Q162.4063,510.6387 161.7188,509.5762 Q161.0313,508.498 161.0313,507.2168 L161.0313,506.0605 Q161.0313,504.7324 161.6406,503.5918 Q162.2656,502.4355 163.3594,501.8262 Q164.4531,501.2012 165.6875,501.2012 Q166.4219,501.2012 167.0625,501.373 Q167.7188,501.5293 168.2656,501.8887 Z " fill="#000000"/><text fill="#000000" font-family="sans-serif" font-size="14" lengthAdjust="spacing" textLength="105.0342" x="179.5" y="511.8105">XxxGatewayImpl</text><line style="stroke:#181818;stroke-width:0.5;" x1="151.5" x2="286.5342" y1="522.0137" y2="522.0137"/><line style="stroke:#181818;stroke-width:0.5;" x1="151.5" x2="286.5342" y1="530.0137" y2="530.0137"/></g><!--link start to adapter--><g id="link_start_adapter"><path codeLine="23" d="M112,100.2737 C112,123.2737 112,149.7937 112,172.7837 " fill="none" id="start-to-adapter" style="stroke:#181818;stroke-width:1.0;"/><polygon fill="#181818" points="112,178.7837,116,169.7837,112,173.7837,108,169.7837,112,178.7837" style="stroke:#181818;stroke-width:1.0;"/><text fill="#000000" font-family="sans-serif" font-size="13" lengthAdjust="spacing" textLength="67.9517" x="113" y="145.042">depends on</text></g><!--link adapter to app--><g id="link_adapter_app"><path codeLine="24" d="M112,236.2737 C112,259.2737 112,285.7937 112,308.7837 " fill="none" id="adapter-to-app" style="stroke:#181818;stroke-width:1.0;"/><polygon fill="#181818" points="112,314.7837,116,305.7837,112,309.7837,108,305.7837,112,314.7837" style="stroke:#181818;stroke-width:1.0;"/><text fill="#000000" font-family="sans-serif" font-size="13" lengthAdjust="spacing" textLength="67.9517" x="113" y="281.042">depends on</text></g><!--link app to client--><g id="link_app_client"><path codeLine="25" d="M89.48,358.2837 C75.24,368.4137 58.04,383.5837 50,402.0137 C38.44,428.5037 39.7745,456.1468 43.6845,479.3868 " fill="none" id="app-to-client" style="stroke:#181818;stroke-width:1.0;"/><polygon fill="#181818" points="44.68,485.3037,47.1313,475.7648,43.8504,480.373,39.2422,477.0921,44.68,485.3037" style="stroke:#181818;stroke-width:1.0;"/><text fill="#000000" font-family="sans-serif" font-size="13" lengthAdjust="spacing" textLength="67.9517" x="51" y="417.042">depends on</text></g><!--link app to infrastructure--><g id="link_app_infrastructure"><path codeLine="26" d="M120.7,372.0137 C123.26,381.4237 125.73,392.0837 127,402.0137 C128.555,414.1262 128.6181,426.9993 127.8294,439.5252 C127.7308,441.091 127.6189,442.6513 127.4949,444.204 C127.4794,444.3981 127.9533,438.6121 127.9374,438.8059 " fill="none" id="app-to-infrastructure" style="stroke:#181818;stroke-width:1.0;"/><polygon fill="#181818" points="127.4479,444.7859,132.1689,436.1423,127.8558,439.8026,124.1956,435.4896,127.4479,444.7859" style="stroke:#181818;stroke-width:1.0;"/><text fill="#000000" font-family="sans-serif" font-size="13" lengthAdjust="spacing" textLength="67.9517" x="129" y="417.042">depends on</text></g><!--link infrastructure to domain--><g id="link_infrastructure_domain"><path codeLine="27" d="M112.95,562.0849 C112.9395,562.1949 112.929,562.3048 112.9185,562.4148 C112.7495,564.1739 112.5669,565.9339 112.3695,567.6853 C111.9748,571.188 111.5213,574.6562 111,578.0137 C110.44,581.6337 109.45,582.3737 109,586.0137 C107.97,594.3937 108.45,596.5837 109,605.0137 C109.6475,614.9787 110.685,625.513 111.8856,635.7565 C112.1858,638.3173 112.4961,640.86 112.8131,643.3711 C112.8528,643.685 112.8925,643.9983 112.9323,644.3112 C112.9522,644.4676 112.2115,638.6724 112.2314,638.8285 " fill="none" id="infrastructure-to-domain" style="stroke:#181818;stroke-width:1.0;"/><polygon fill="#181818" points="112.9921,644.7801,115.8188,635.3456,112.3582,639.8205,107.8834,636.3599,112.9921,644.7801" style="stroke:#181818;stroke-width:1.0;"/><text fill="#000000" font-family="sans-serif" font-size="13" lengthAdjust="spacing" textLength="67.9517" x="110" y="601.042">depends on</text></g><!--link XxxGatewayImpl to XxxGateway--><g id="link_XxxGatewayImpl_XxxGateway"><path codeLine="29" d="M218.11,538.0637 C216.77,572.9737 214.9344,620.9071 213.5844,655.8771 " fill="none" id="XxxGatewayImpl-to-XxxGateway" style="stroke:#181818;stroke-width:1.0;stroke-dasharray:7.0,7.0;"/><polygon fill="none" points="212.89,673.8637,219.5799,656.1085,207.5888,655.6456,212.89,673.8637" style="stroke:#181818;stroke-width:1.0;"/><text fill="#000000" font-family="sans-serif" font-size="13" lengthAdjust="spacing" textLength="66.4663" x="217" y="601.042">implements</text></g><!--SRC=[TP2zhi8m38NtFeN5mjHsPs12GWntlwkL68X8qYXn1GXuTznGe2tWyPpFFyVpFND8YxeE5ZstpbQgSRMoc5Af3UuYkg88g0wu8vZzDRgrb615WRmchsW6bmAadaXYZ0oNsqX4ZO4f2fhbYHd2TqDPGvxVtiZKZKFZ- -LT6IyRjgW8_a-dDJ8TyVojqVXjnCInLTn66Wp8cGVD6nViSC0ZMLakNt4MeFCV4ZG-8qyZGnBh4n2nC_jeF_t9aH_SnEzQ-eUCqCoE4q5LNPS3JHgCoEJadbH8tUu0]--></g></svg>